<?xml version="1.0" standalone="no"?>
<!DOCTYPE svg PUBLIC "-//W3C//DTD SVG 20010904//EN"
 "http://www.w3.org/TR/2001/REC-SVG-20010904/DTD/svg10.dtd">
<svg version="1.0" xmlns="http://www.w3.org/2000/svg"
 width="416.000000pt" height="416.000000pt" viewBox="0 0 416.000000 416.000000"
 preserveAspectRatio="xMidYMid meet">
<metadata>
Created by potrace 1.11, written by Peter Selinger 2001-2013
</metadata>
<g transform="translate(0.000000,416.000000) scale(0.100000,-0.100000)"
fill="#000000" stroke="none">
<path d="M1760 4031 c-90 -20 -221 -102 -298 -186 -65 -70 -128 -177 -164
-278 -28 -75 -31 -93 -31 -217 -1 -133 0 -136 32 -199 36 -72 41 -59 -50 -156
-143 -155 -320 -427 -469 -723 -117 -232 -171 -426 -157 -562 8 -74 36 -212
47 -225 4 -5 10 -23 14 -40 12 -48 71 -148 123 -205 52 -58 169 -149 227 -177
61 -29 40 -66 -45 -77 -110 -15 -209 -91 -266 -206 -25 -50 -28 -65 -28 -160
0 -81 4 -113 18 -141 20 -40 69 -96 107 -122 l25 -17 0 -170 c0 -168 0 -170
22 -170 18 0 22 7 25 37 4 52 28 56 28 4 l0 -41 150 0 150 0 0 25 c0 45 24
115 47 137 21 19 24 20 46 5 24 -15 57 -99 57 -143 l0 -24 1005 0 1005 0 -21
53 c-37 93 -66 191 -78 261 l-12 69 44 46 c159 164 149 397 -24 570 -77 77
-200 141 -271 141 -24 0 -47 3 -51 6 -3 3 17 34 45 67 116 144 168 307 168
530 0 285 -84 543 -277 856 -77 125 -82 131 -194 264 -172 202 -336 344 -486
419 -65 32 -83 46 -83 63 0 11 4 25 9 31 30 32 45 295 21 370 -40 130 -104
214 -195 255 -66 30 -158 43 -215 30z m-80 -160 c0 -27 -37 -51 -77 -51 -45 0
-52 19 -17 47 37 30 94 32 94 4z m-130 -80 c0 -24 -70 -112 -112 -139 -37 -25
-48 -38 -49 -60 -2 -45 2 -66 17 -89 29 -46 7 -193 -30 -193 -22 0 -36 55 -36
144 0 127 37 224 115 302 29 29 53 44 70 44 14 0 25 -4 25 -9z m-40 -191 c0
-19 -19 -30 -51 -30 -27 0 -25 38 4 49 29 11 47 3 47 -19z m661 -390 l60 -31
-32 -44 c-18 -25 -35 -45 -38 -45 -3 0 -26 14 -50 30 -24 17 -51 30 -59 30 -9
0 -12 6 -8 16 8 22 49 73 59 73 4 1 35 -13 68 -29z m-1041 -475 c-85 -137
-220 -417 -263 -545 -56 -164 -72 -256 -71 -410 0 -246 42 -327 278 -531 38
-33 38 -34 15 -39 -18 -4 -25 -14 -27 -38 -2 -18 -7 -32 -11 -32 -23 0 -137
89 -196 152 -204 219 -226 521 -64 877 76 167 203 399 271 496 16 22 40 57 54
78 32 48 44 41 14 -8z m974 24 c80 -22 156 -106 156 -172 0 -99 -59 -133 -305
-176 -66 -12 -160 -26 -208 -31 -48 -5 -91 -11 -95 -14 -4 -2 -68 -9 -142 -16
-150 -13 -235 -4 -280 29 -36 26 -78 99 -86 147 -5 34 -2 45 20 71 55 66 237
129 441 154 235 28 414 31 499 8z m-170 -936 c3 -27 9 -90 12 -141 8 -123 1
-137 -79 -151 -47 -8 -63 -8 -69 2 -4 6 -7 80 -5 162 l2 150 55 12 c30 6 60
12 66 12 7 1 15 -20 18 -46z m-166 -133 c1 -95 -1 -157 -8 -164 -15 -15 -61
23 -85 70 -16 31 -20 59 -20 139 l0 100 45 6 c25 3 50 5 55 4 6 -1 11 -63 13
-155z m-601 -522 c16 -18 42 -50 58 -70 33 -46 21 -49 -58 -16 -71 29 -83 39
-63 50 9 5 16 22 16 38 0 38 9 38 47 -2z m-6 -235 c4 -27 13 -62 22 -78 52
-100 230 -194 411 -216 45 -6 104 -15 131 -21 100 -20 455 15 660 66 81 20
193 60 207 74 7 7 17 12 23 12 5 0 30 16 54 35 51 41 61 43 61 14 0 -26 -31
-54 -76 -71 -19 -7 -34 -16 -34 -20 0 -4 -4 -8 -10 -8 -5 0 -34 -11 -64 -25
-30 -14 -60 -25 -67 -25 -13 0 -69 -17 -104 -31 -26 -11 -144 -28 -280 -40
-126 -12 -550 -5 -568 9 -7 5 -34 12 -62 16 -52 7 -172 48 -215 75 -56 34
-119 93 -134 125 -16 34 -23 166 -9 179 3 4 16 1 27 -7 15 -9 23 -28 27 -63z
m-309 -80 c-59 -75 -82 -139 -82 -228 0 -55 5 -92 16 -114 9 -18 14 -34 11
-37 -8 -9 -41 51 -59 106 -16 51 -17 59 -2 110 21 73 47 117 98 162 22 21 43
38 44 38 2 0 -10 -17 -26 -37z m468 -465 c42 -45 10 -106 -49 -93 -31 7 -71
47 -71 71 0 19 40 44 72 44 15 0 36 -10 48 -22z"/>
</g>
</svg>
